<svg width="53" height="53" viewBox="0 0 53 53" fill="none" xmlns="http://www.w3.org/2000/svg">
<g clip-path="url(#clip0_275_1038)">
<path d="M26.5 0C11.8367 0 0 11.8367 0 26.5C0 41.1633 11.8367 53 26.5 53C41.1633 53 53 41.1633 53 26.5C53 11.8367 41.1633 0 26.5 0ZM26.5 3.11375C29.15 3.11375 31.7117 3.59958 34.0746 4.41667L26.7871 20.1621C26.6987 20.2504 26.6987 20.4492 26.5 20.4492C26.3012 20.4492 26.3012 20.2504 26.2129 20.1621L18.9254 4.41667C21.2883 3.59958 23.85 3.13583 26.5 3.13583M15.2375 6.05083L23.6733 24.2254C23.85 24.6008 24.0487 24.7112 24.2917 24.7112H28.7083C28.9733 24.7112 29.15 24.6008 29.3487 24.2254L37.6742 6.05083C41.1633 8.03833 44.1667 10.8871 46.2867 14.2879L34.45 37.1883C34.3617 37.3871 34.2292 37.4754 34.1629 37.4754C33.9862 37.4754 33.9862 37.2987 33.8758 37.1883L29.3487 27.1625C29.15 26.7871 28.9733 26.6987 28.7083 26.6987H24.2917C24.0487 26.6987 23.85 26.7871 23.6512 27.1625L19.1242 37.1883C19.0137 37.2987 19.0358 37.4754 18.8371 37.4754C18.6383 37.4754 18.6383 37.2987 18.55 37.1883L6.625 14.2879C8.70083 10.8871 11.7483 8.03833 15.2375 6.05083ZM4.54917 18.8371L18.1746 45.3371C18.3512 45.7125 18.55 45.9996 19.0358 45.9996C19.4996 45.9996 19.6762 45.7125 19.875 45.3371L26.2129 31.2258C26.3012 31.0492 26.4117 30.9167 26.5 30.9167C26.6987 30.9167 26.6987 31.1375 26.7871 31.2258L33.2133 45.3371C33.4121 45.7125 33.5887 45.9996 34.0746 45.9996C34.5383 45.9996 34.7371 45.7125 34.9137 45.3371L48.5833 18.8371C49.4004 21.2 49.8862 23.7617 49.8862 26.5C49.7758 39.2862 39.2862 49.8862 26.5 49.8862C13.7137 49.8862 3.22417 39.2862 3.22417 26.5C3.22417 23.85 3.68792 21.3104 4.54917 18.8371Z" fill="#FEFCFD"/>
</g>
<defs>
<clipPath id="clip0_275_1038">
<rect width="53" height="53" fill="white"/>
</clipPath>
</defs>
</svg>
